<svg xmlns="http://www.w3.org/2000/svg" version="1.1" xmlns:xlink="http://www.w3.org/1999/xlink" width="512" height="512" x="0" y="0" viewBox="0 0 477.874 477.874" style="enable-background:new 0 0 512 512" xml:space="preserve" class=""><g><path d="M460.812 0a17.068 17.068 0 0 0-7.637 1.8L323.844 66.483 177.6 1.476c-.239-.102-.512-.12-.768-.222a17.064 17.064 0 0 0-2.014-.614 17.715 17.715 0 0 0-2.065-.427 25.392 25.392 0 0 0-4.164 0c-.696.101-1.386.244-2.065.427-.683.163-1.356.368-2.014.614-.256.102-.529.119-.768.222l-153.6 68.267A17.063 17.063 0 0 0 .004 85.341v375.467a17.068 17.068 0 0 0 7.765 14.302 17.064 17.064 0 0 0 16.23 1.297l146.671-65.195 146.671 65.195c.256.102.529 0 .785.154a15.07 15.07 0 0 0 12.919-.29c.273-.119.58 0 .853-.188l136.533-68.267a17.067 17.067 0 0 0 9.438-15.275V17.075C477.875 7.649 470.237.004 460.812 0zM153.604 381.448 34.137 434.542V96.435L153.604 43.34v338.108zm153.6 53.094-119.467-53.094V43.34l119.467 53.094v338.108zm136.533-52.548-102.4 51.2V95.888l102.4-51.2v337.306z" fill="#ffffff" opacity="1" data-original="#ffffff" class=""></path></g></svg>