<svg xmlns="http://www.w3.org/2000/svg" version="1.1" xmlns:xlink="http://www.w3.org/1999/xlink" width="512" height="512" x="0" y="0" viewBox="0 0 512 512" style="enable-background:new 0 0 512 512" xml:space="preserve" class=""><g><path d="M460.8 25.6c-28.22-.051-51.139 22.785-51.19 51.006a51.098 51.098 0 0 0 14.394 35.642l-93.542 187.051a49.515 49.515 0 0 0-6.195-.631 50.982 50.982 0 0 0-19.268 3.823l-72.619-81.664a50.59 50.59 0 0 0 6.554-24.559c0-28.277-22.923-51.2-51.2-51.2s-51.2 22.923-51.2 51.2a50.742 50.742 0 0 0 12.561 33.212L60.348 384.922A51.36 51.36 0 0 0 51.2 384C22.923 384 0 406.923 0 435.2s22.923 51.2 51.2 51.2 51.2-22.923 51.2-51.2a50.742 50.742 0 0 0-12.561-33.212l88.747-155.443a48.682 48.682 0 0 0 28.348-2.901l72.619 81.664a50.578 50.578 0 0 0-6.485 24.559c-.085 28.277 22.768 51.269 51.045 51.354 28.277.085 51.269-22.768 51.354-51.045a51.2 51.2 0 0 0-14.404-35.756l93.542-187.051c2.05.34 4.119.551 6.195.631 28.277 0 51.2-22.923 51.2-51.2s-22.923-51.2-51.2-51.2zM51.2 452.267c-9.426 0-17.067-7.641-17.067-17.067s7.641-17.067 17.067-17.067 17.067 7.641 17.067 17.067-7.641 17.067-17.067 17.067zm136.533-238.934c-9.426 0-17.067-7.641-17.067-17.067s7.641-17.067 17.067-17.067 17.067 7.641 17.067 17.067-7.641 17.067-17.067 17.067zm136.534 153.6c-9.426 0-17.067-7.641-17.067-17.067s7.641-17.067 17.067-17.067 17.067 7.641 17.067 17.067c-.001 9.426-7.642 17.067-17.067 17.067zM460.8 93.867c-9.426 0-17.067-7.641-17.067-17.067s7.641-17.067 17.067-17.067 17.067 7.641 17.067 17.067-7.641 17.067-17.067 17.067z" fill="#ffffff" opacity="1" data-original="#ffffff" class=""></path></g></svg>