<svg xmlns="http://www.w3.org/2000/svg" version="1.1" xmlns:xlink="http://www.w3.org/1999/xlink" width="512" height="512" x="0" y="0" viewBox="0 0 512 512" style="enable-background:new 0 0 512 512" xml:space="preserve" class=""><g><linearGradient id="c" x1="74.981" x2="437.02" y1="437.019" y2="74.98" gradientUnits="userSpaceOnUse"><stop offset="0" stop-color="#230be0"></stop><stop offset="1" stop-color="#fc54ff"></stop></linearGradient><radialGradient id="d" cx="256.001" cy="256" r="258.6" gradientUnits="userSpaceOnUse"><stop offset="0" stop-color="#8d00db"></stop><stop offset=".097" stop-color="#9d0ce0" stop-opacity=".903"></stop><stop offset=".375" stop-color="#c62bed" stop-opacity=".625"></stop><stop offset=".627" stop-color="#e441f7" stop-opacity=".373"></stop><stop offset=".844" stop-color="#f64ffd" stop-opacity=".156"></stop><stop offset="1" stop-color="#fc54ff" stop-opacity="0"></stop></radialGradient><linearGradient id="a"><stop offset="0" stop-color="#1805b0"></stop><stop offset="1" stop-color="#fc54ff"></stop></linearGradient><linearGradient xlink:href="#a" id="e" x1="47.956" x2="941.151" y1="413.334" y2="-479.86" gradientUnits="userSpaceOnUse"></linearGradient><linearGradient xlink:href="#a" id="f" x1="104.754" x2="634.586" y1="482.45" y2="-47.383" gradientUnits="userSpaceOnUse"></linearGradient><linearGradient xlink:href="#a" id="g" x1="-4.938" x2="816.186" y1="527.874" y2="-293.25" gradientUnits="userSpaceOnUse"></linearGradient><linearGradient id="b"><stop offset="0" stop-color="#fc54ff"></stop><stop offset=".406" stop-color="#fd9bff"></stop><stop offset="1" stop-color="#fff"></stop></linearGradient><linearGradient xlink:href="#b" id="h" x1="-218.303" x2="601.484" y1="670.369" y2="-149.418" gradientUnits="userSpaceOnUse"></linearGradient><linearGradient xlink:href="#b" id="i" x1="-27.791" x2="729.928" y1="346.75" y2="-410.968" gradientUnits="userSpaceOnUse"></linearGradient><linearGradient xlink:href="#b" id="j" x1="-179.07" x2="738.565" y1="565.678" y2="-351.956" gradientUnits="userSpaceOnUse"></linearGradient><linearGradient xlink:href="#a" id="k" x1="228.691" x2="325.693" y1="114.195" y2="17.194" gradientUnits="userSpaceOnUse"></linearGradient><radialGradient id="l" cx="255.861" cy="87.011" r="36.562" gradientUnits="userSpaceOnUse"><stop offset="0" stop-color="#170794" stop-opacity="0"></stop><stop offset="1" stop-color="#170794"></stop></radialGradient><linearGradient xlink:href="#a" id="m" x1="248.636" x2="559.362" y1="424.329" y2="113.604" gradientUnits="userSpaceOnUse"></linearGradient><linearGradient xlink:href="#a" id="n" x1="-57.228" x2="431.035" y1="709.845" y2="221.582" gradientUnits="userSpaceOnUse"></linearGradient><linearGradient xlink:href="#a" id="o" x1="-42.66" x2="439.79" y1="565.04" y2="82.591" gradientUnits="userSpaceOnUse"></linearGradient><linearGradient xlink:href="#a" id="p" x1="-70.19" x2="467.724" y1="679.107" y2="141.193" gradientUnits="userSpaceOnUse"></linearGradient><linearGradient xlink:href="#b" id="q" x1="-577.1" x2="353.418" y1="1134.707" y2="204.189" gradientUnits="userSpaceOnUse"></linearGradient><linearGradient xlink:href="#b" id="r" x1="-422.77" x2="341.717" y1="828.607" y2="64.121" gradientUnits="userSpaceOnUse"></linearGradient><linearGradient xlink:href="#b" id="s" x1="-861.445" x2="410.434" y1="1348.604" y2="76.725" gradientUnits="userSpaceOnUse"></linearGradient><linearGradient xlink:href="#b" id="t" x1="235.836" x2="504.353" y1="293.969" y2="25.453" gradientUnits="userSpaceOnUse"></linearGradient><linearGradient xlink:href="#b" id="u" x1="144.129" x2="867.192" y1="448.07" y2="-274.992" gradientUnits="userSpaceOnUse"></linearGradient><linearGradient xlink:href="#b" id="v" x1="171.956" x2="611.757" y1="457.742" y2="17.941" gradientUnits="userSpaceOnUse"></linearGradient><linearGradient xlink:href="#b" id="w" x1="150.158" x2="449.861" y1="346.951" y2="47.248" gradientUnits="userSpaceOnUse"></linearGradient><linearGradient xlink:href="#b" id="x" x1="-61.258" x2="613.511" y1="622.162" y2="-52.607" gradientUnits="userSpaceOnUse"></linearGradient><circle cx="256" cy="256" r="256" fill="url(#c)" opacity="1" data-original="url(#c)"></circle><circle cx="256" cy="256" r="256" fill="url(#d)" opacity="1" data-original="url(#d)" class=""></circle><path fill="url(#e)" d="M227.769 64.525a1966.984 1966.984 0 0 0-52.712 2.13c-16.542.92-30.473 15.316-30.998 31.845-3.188 105-3.188 210 0 315 .525 16.53 14.455 30.925 30.998 31.845a1964.171 1964.171 0 0 0 69.4 2.509c-6.768-128.005-12.886-255.829-16.688-383.329z" opacity="1" data-original="url(#e)"></path><path fill="url(#f)" d="M336.942 64.622a1975.52 1975.52 0 0 0-22.698-.521c-3.813 127.848-9.24 255.884-14.802 383.996 12.5-.12 25-.36 37.5-.719 16.543-.491 30.293-14.749 30.635-31.538a8387.05 8387.05 0 0 0 0-319.68c-.342-16.788-14.092-31.046-30.635-31.538z" opacity="1" data-original="url(#f)"></path><path fill="url(#g)" d="M329.802 416.926a15026.745 15026.745 0 0 0-.17-336.977c-.106-8.572-7.001-15.702-15.388-15.848-28.825-.495-57.65-.354-86.475.423-8.387.229-15.317 7.406-15.463 15.951a10726.23 10726.23 0 0 0-.236 335.97c.278 16.858 15.845 31.098 32.386 31.409 18.329.338 36.657.419 54.986.243 16.543-.165 30.156-14.258 30.36-31.171z" opacity="1" data-original="url(#g)" class=""></path><path fill="url(#h)" d="M337.159 79.932c0-.004-7.527-.055-7.526.017a12079.885 12079.885 0 0 1-37.508 60.757c20.32.069 40.64.323 60.96.759a10291.19 10291.19 0 0 0-.616-45.813c-.139-8.428-7-15.497-15.31-15.72z" opacity="1" data-original="url(#h)"></path><path fill="url(#i)" d="m212.159 89.782-4.885-4.873c-2.778-2.769-6.576-4.238-10.57-4.082-7.35.287-14.701.612-22.051.975-8.31.417-15.253 7.556-15.482 15.875a5935.773 5935.773 0 0 0-1.042 45.235 3371.864 3371.864 0 0 1 88.275-2.051 18173.898 18173.898 0 0 1-34.245-51.079z" opacity="1" data-original="url(#i)"></path><path fill="url(#j)" d="M329.62 79.747c-4.837-.11-9.675-.205-14.512-.282a14.552 14.552 0 0 0-10.622 4.355 83914.327 83914.327 0 0 0-19.089 19.367 22.707 22.707 0 0 1-16.071 6.774c-9.056.039-18.113.124-27.169.257-6.031.088-11.795-2.23-16.004-6.445-4.681-4.688-9.346-9.353-13.992-13.991-.267 17.205-.492 34.409-.676 51.614 39.58-.811 79.161-.926 118.741-.343.035 0-.559-61.295-.606-61.306z" opacity="1" data-original="url(#j)"></path><path fill="url(#k)" d="M255.905 79.329c-4.157.047-7.554 3.538-7.587 7.777-.033 4.24 3.326 7.629 7.5 7.586 4.174-.044 7.57-3.507 7.585-7.752.016-4.244-3.341-7.659-7.498-7.611z" opacity="1" data-original="url(#k)"></path><path fill="url(#l)" d="M255.905 79.329c-4.157.047-7.554 3.538-7.587 7.777-.033 4.24 3.326 7.629 7.5 7.586 4.174-.044 7.57-3.507 7.585-7.752.016-4.244-3.341-7.659-7.498-7.611z" opacity="1" data-original="url(#l)"></path><path fill="url(#m)" d="M227.167 416.834c.104 8.455 6.934 15.488 15.244 15.638 8.996.16 17.992.264 26.989.311 8.31.044 15.058-6.859 15.071-15.349.012-8.492-6.77-15.36-15.146-15.396-9.056-.039-18.113-.124-27.169-.257-8.377-.118-15.093 6.597-14.989 15.053z" opacity="1" data-original="url(#m)"></path><path fill="url(#n)" d="M269.182 306.116c20.486 26.88 40.88 53.727 60.916 80.158 2.534-.042 5.067-.088 7.601-.137 8.391-.165 15.286-7.174 15.384-15.603.242-21.583.416-43.165.521-64.748-28.14.261-56.281.371-84.422.33z" opacity="1" data-original="url(#n)"></path><path fill="url(#o)" d="M157.142 290.079c.152 26.336.481 52.673.986 79.009.163 8.319 7.119 15.357 15.51 15.667 12.673.458 25.346.835 38.019 1.13 9.75-31.547 19.81-63.319 29.995-95.202-28.17-.097-56.34-.298-84.51-.604z" opacity="1" data-original="url(#o)"></path><path fill="url(#p)" d="M210.926 290.536c.102 31.783.346 63.566.731 95.349 39.481.92 78.961 1.049 118.442.389.276-31.878.451-63.756.525-95.635-39.9.176-79.799.141-119.698-.103z" opacity="1" data-original="url(#p)" class=""></path><path fill="url(#q)" d="M353.084 141.467c-.098-8.428-6.993-15.438-15.384-15.603-2.534-.049-5.067-.094-7.601-.137-25.076 29.616-50.641 59.851-76.282 90.029 25.555 30.038 51.281 60.333 76.763 90.21 7.675-.049 15.35-.109 23.024-.18.267-54.774.094-109.546-.52-164.319z" opacity="1" data-original="url(#q)"></path><path fill="url(#r)" d="M271.095 215.723a33409.61 33409.61 0 0 1-59.438-89.607c-12.673.295-25.346.672-38.019 1.13-8.391.31-15.347 7.348-15.51 15.667a5893.994 5893.994 0 0 0-.986 147.167c.049 8.32 6.981 15.181 15.456 15.304 12.796.176 25.592.32 38.388.433a54957.047 54957.047 0 0 0 60.109-90.094z" opacity="1" data-original="url(#r)" class=""></path><path fill="url(#s)" d="M330.099 125.726c-39.481-.66-78.961-.531-118.442.389-.725 59.9-.949 119.8-.671 179.701 39.865.353 79.729.402 119.594.149.2-60.079.039-120.159-.481-180.239z" opacity="1" data-original="url(#s)"></path><path fill="url(#t)" d="M280.228 205.881c-12.106.001-24.211.029-36.317.086a15.403 15.403 0 0 0-2.075 7.683 19288.4 19288.4 0 0 0 0 84.707c.012 5.482 2.952 10.563 7.705 13.328a24081.513 24081.513 0 0 0 30.687 17.822c-.001-41.21-.001-82.418 0-123.626z" opacity="1" data-original="url(#t)"></path><path fill="url(#u)" d="M274.604 223.634a15.387 15.387 0 0 0-2.061 7.69c-.007 28.287-.002 56.575.016 84.862a15.414 15.414 0 0 0 7.669 13.32 7669.984 7669.984 0 0 0 42.477 24.458 14.958 14.958 0 0 0 7.528 1.963c18.889-44.3 37.912-88.421 56.419-131.832-37.348-.325-74.698-.479-112.048-.461z" opacity="1" data-original="url(#u)"></path><path fill="url(#v)" d="M417.248 207.07a7868.437 7868.437 0 0 0-86.765-1.03c.166 49.962.083 99.925-.249 149.887a15.438 15.438 0 0 0 7.749-2.154c24.449-14.436 49.011-28.944 73.597-43.234 4.774-2.777 7.749-7.78 7.792-13.137.22-27.598.219-55.197-.002-82.795a14.993 14.993 0 0 0-2.122-7.537z" opacity="1" data-original="url(#v)"></path><path fill="url(#w)" d="M337.979 158.231c-4.746-2.805-10.556-2.883-15.277-.191-24.264 13.855-48.679 28.045-73.159 42.28a15.492 15.492 0 0 0-5.63 5.645c10.218 5.86 20.45 11.757 30.691 17.669 31.481-16.035 62.901-31.972 94.115-47.268-10.262-6.043-20.511-12.096-30.74-18.135z" opacity="1" data-original="url(#w)"></path><path fill="url(#x)" d="M411.578 201.469c-.012.044-42.877-25.072-42.86-25.103-4.762-2.806-10.595-2.911-15.309-.252-24.283 13.685-48.705 27.746-73.18 41.892a15.363 15.363 0 0 0-5.626 5.629c18.671 10.78 37.369 21.612 56.055 32.368 28.938-16.654 57.849-33.124 86.588-48.934a15.84 15.84 0 0 0-5.668-5.6z" opacity="1" data-original="url(#x)"></path></g></svg>