<svg xmlns="http://www.w3.org/2000/svg" version="1.1" xmlns:xlink="http://www.w3.org/1999/xlink" width="512" height="512" x="0" y="0" viewBox="0 0 512 512" style="enable-background:new 0 0 512 512" xml:space="preserve" class=""><g><path d="M441.239 137.656 306.547 2.964A10.118 10.118 0 0 0 299.391 0H109.598c-23.049 0-41.8 18.751-41.8 41.8v428.4c0 23.049 18.751 41.8 41.8 41.8h292.804c23.049 0 41.8-18.751 41.8-41.8V144.811a10.12 10.12 0 0 0-2.963-7.155zM309.511 34.549 409.654 134.69h-78.582c-11.889 0-21.56-9.672-21.56-21.562V34.549zM423.964 470.2c0 11.889-9.672 21.562-21.562 21.562H109.598c-11.889 0-21.562-9.673-21.562-21.562V41.8c0-11.889 9.673-21.562 21.562-21.562h179.674v92.892c0 23.049 18.75 41.8 41.799 41.8h92.893V470.2z" fill="#fff" opacity="1" data-original="#fff"></path><path d="M336.949 257.012H175.051c-5.588 0-10.119 4.531-10.119 10.119s4.531 10.119 10.119 10.119h161.898c5.59 0 10.119-4.531 10.119-10.119s-4.529-10.119-10.119-10.119zM336.949 302.208H175.051c-5.588 0-10.119 4.531-10.119 10.119s4.531 10.119 10.119 10.119h161.898c5.59 0 10.119-4.531 10.119-10.119s-4.529-10.119-10.119-10.119zM336.949 347.404H175.051c-5.588 0-10.119 4.531-10.119 10.119s4.531 10.119 10.119 10.119h161.898c5.59 0 10.119-4.531 10.119-10.119s-4.529-10.119-10.119-10.119zM284.332 392.601H175.051c-5.588 0-10.119 4.531-10.119 10.119s4.531 10.119 10.119 10.119h109.281c5.59 0 10.119-4.531 10.119-10.119s-4.529-10.119-10.119-10.119z" fill="#fff" opacity="1" data-original="#fff"></path></g></svg>