<svg xmlns="http://www.w3.org/2000/svg" version="1.1" xmlns:xlink="http://www.w3.org/1999/xlink" width="512" height="512" x="0" y="0" viewBox="0 0 682.667 682" style="enable-background:new 0 0 512 512" xml:space="preserve" class=""><g><path d="m393.184 388.332-25.688-79.453-.183-.547c-8.192-23.488-30.22-39.262-54.813-39.262l-185.215.012c-24.594 0-46.62 15.773-54.808 39.25l-25.93 80.234c-9.188 3.883-17.637 9.653-24.875 17.149C7.695 420.168 0 439.117 0 459.07v131.25c0 27.567 22.43 50 50 50 25.453 0 46.508-19.12 49.594-43.75h240.812c3.086 24.63 24.14 43.75 49.594 43.75 26.168 0 50-20.855 50-43.75V457.82c0-31.394-19.395-58.328-46.816-69.488zm-265.895-69.25 185.211-.012c3.238 0 6.309 2.27 7.535 5.551l18.813 58.2H100.945l18.805-58.2c1.223-3.273 4.293-5.539 7.54-5.539zM390 521.57c0 13.782-11.215 25-25 25H75c-13.785 0-25-11.218-25-25v-62.5c0-14.23 11.45-26.25 25-26.25h290c13.785 0 25 11.215 25 25zm-226.25-57.5H277.5v50H163.75zm195 25c0 13.801-11.191 25-25 25s-25-11.199-25-25c0-13.808 11.191-25 25-25s25 11.192 25 25zm-226.25 0c0 13.801-11.191 25-25 25s-25-11.199-25-25c0-13.808 11.191-25 25-25s25 11.192 25 25zm401.25-138.75c-13.809 0-25-11.199-25-25 0-13.808 11.191-25 25-25s25 11.192 25 25c0 13.801-11.191 25-25 25zM157.5 186.57c13.809 0 25 11.192 25 25 0 13.801-11.191 25-25 25s-25-11.199-25-25c0-13.808 11.191-25 25-25zM50.371 251.492a73.763 73.763 0 0 1-.371-7.41V186.57c0-19.953 7.695-38.902 21.672-53.36 7.316-7.573 15.875-13.39 25.183-17.265l25.665-76.492C130.742 16.047 152.734.332 177.285.332H362.5c24.55 0 46.543 15.715 54.766 39.121l5.718 20.86h-53.203c-1.347-2.958-4.23-10-7.281-10H177.285c-3.3 0-6.426 2.374-7.601 5.738l-.075.21L152 110.322h84.328a108.983 108.983 0 0 0-11.062 22.777l-.286.82-8.53 26.402H125c-13.55 0-25 12.02-25 26.25v36.063c-18.906 4.98-36.04 15.02-49.629 28.86zM640 294.07v138.75c0 22.895-23.832 43.75-50 43.75-25.453 0-46.508-19.12-49.594-43.75h-52.922c-3.757-18.468-11.605-35.46-22.546-50H565c13.785 0 25-11.218 25-25v-63.75c0-13.785-11.215-25-25-25H403.445c-19.593-30.652-53.672-50-90.953-50h225.824l-18.254-53.152c-1.136-3.25-4.261-5.598-7.562-5.598H327.285c-3.285 0-6.394 2.328-7.582 5.672L301.52 220.31l-52.856.011 23.813-70.754c8.187-23.476 30.214-39.246 54.808-39.246H512.5c24.594 0 46.621 15.77 54.809 39.246l25.746 74.965C620.547 235.664 640 262.633 640 294.071zm-206.559 56.25-16.168-50H477.5v50zm0 0" fill="#fff" opacity="1" data-original="#000000" class=""></path></g></svg>