<svg xmlns="http://www.w3.org/2000/svg" version="1.1" xmlns:xlink="http://www.w3.org/1999/xlink" width="512" height="512" x="0" y="0" viewBox="0 0 512 512" style="enable-background:new 0 0 512 512" xml:space="preserve" class=""><g><path fill="#a772f2" d="M512 256c0 104.58-62.71 194.51-152.58 234.24L51.08 409.46C19.01 366.7 0 313.57 0 256 0 114.61 114.62 0 256 0s256 114.61 256 256z" opacity="1" data-original="#a772f2" class=""></path><path fill="#7c56d8" d="M512 256c0-20.759-2.488-40.933-7.152-60.259l-70.885-70.885-16.363-2.26-28.952-28.952-63.779 40.648-57.954-57.954L248 119.608l-116.277 63.438 61.614 61.614-26.463 60.538 53.66 148.657L359.42 490.24C449.29 450.51 512 360.58 512 256z" opacity="1" data-original="#7c56d8" class=""></path><path fill="#ffc1a6" d="M169.315 283.209v-62.3h37.724l10.379 37.005-10.38 37.007z" opacity="1" data-original="#ffc1a6" class=""></path><path fill="#f9a991" d="M244.759 220.909h-37.72v47.283l18.86 7.265 18.86-7.265z" opacity="1" data-original="#f9a991" class=""></path><path fill="#ffdcc0" d="M207.23 268.192h-37.724l-4.43 62.3 42.152 11.712 13.727-40.373z" opacity="1" data-original="#ffdcc0" class=""></path><path fill="#ffc1a6" d="M244.759 268.192h-37.72v74.011l43.745-11.711z" opacity="1" data-original="#ffc1a6" class=""></path><path fill="#ffdcc0" d="M207.037 72.27c-30.496 0-66.536 16.466-69.471 61.021-7.886 1.525-13.488 11.869-12.606 20.232l1.352 19.032c.925 8.782 8.645 15.194 17.153 14.24l1.467-.159c5.956 15.975 13.062 27.07 20.529 34.855 14.398 15.02 30.149 17.753 41.577 19.559 11.427-1.807 30.495-168.78-.001-168.78z" opacity="1" data-original="#ffdcc0" class=""></path><path fill="#ffc1a6" d="M248.614 221.49c7.467-7.785 14.572-18.88 20.528-34.855l1.467.159c8.508.955 16.228-5.457 17.153-14.24l1.352-19.032c.882-8.363-4.72-18.707-12.606-20.232-2.934-44.554-38.973-61.02-69.469-61.021v168.78c11.428-1.806 27.177-4.539 41.575-19.559z" opacity="1" data-original="#ffc1a6" class=""></path><circle cx="180.402" cy="162.796" r="11.689" fill="#595959" transform="rotate(-28.15 180.253 162.694)" opacity="1" data-original="#595959" class=""></circle><circle cx="233.673" cy="162.796" r="11.689" fill="#3f3f3f" transform="rotate(-76.77 233.605 162.7)" opacity="1" data-original="#3f3f3f" class=""></circle><path fill="#ffffff" d="M343.528 315.453v42.784c-27.893 29.32-65.137 49.656-106.943 56.249-9.624 1.516-19.498 2.303-29.548 2.303s-19.924-.787-29.548-2.303c-41.806-6.592-79.05-26.929-106.942-56.249v-42.784c0-26.105 21.16-47.265 47.265-47.265h64.077l25.148 26.733 25.148-26.733h64.077c26.105 0 47.266 21.161 47.266 47.265z" opacity="1" data-original="#ffffff" class=""></path><path fill="#e2e2e2" d="M296.265 268.188h-64.077l-25.148 26.733v121.868a189.84 189.84 0 0 0 29.548-2.303c41.806-6.592 79.05-26.929 106.943-56.249v-42.784c-.001-26.104-21.162-47.265-47.266-47.265zM168.173 250.91l-33.317 17.282 36.091 58.642 36.091-31.913z" opacity="1" data-original="#e2e2e2" class=""></path><path fill="#c4c4c4" d="m245.903 250.91 33.317 17.282-36.09 58.642-36.091-31.913z" opacity="1" data-original="#c4c4c4"></path><path fill="#595959" d="M219.773 53.838H194.3a60.626 60.626 0 0 0-35.645 11.585c-19.617 14.257-28.852 38.832-23.479 62.481l6.319 27.808 13.569 13.113 7.609-54.116c17.787 2.911 36.532 3.099 44.364 3.027 7.832.072 26.577-.117 44.364-3.027l7.609 54.116 13.569-13.113 6.319-27.808c5.373-23.648-3.862-48.224-23.479-62.481a60.629 60.629 0 0 0-35.646-11.585z" opacity="1" data-original="#595959" class=""></path><path fill="#3f3f3f" d="m251.401 114.708 7.609 54.116 13.569-13.113 6.319-27.809a60.632 60.632 0 0 0-59.124-74.065H207.04v63.898c7.832.073 26.575-.116 44.361-3.027z" opacity="1" data-original="#3f3f3f" class=""></path><path fill="#595959" d="m367.27 312.98-7.85 177.26C327.79 504.23 292.8 512 256 512c-83.81 0-158.22-40.28-204.92-102.54l-4.27-96.48z" opacity="1" data-original="#595959" class=""></path><path fill="#3f3f3f" d="m359.42 490.24 7.85-177.26H207.039v194.338A257.254 257.254 0 0 0 256 512c36.8 0 71.79-7.77 103.42-21.76z" opacity="1" data-original="#3f3f3f" class=""></path><circle cx="207.037" cy="398.865" r="23.209" fill="#e2e2e2" opacity="1" data-original="#e2e2e2" class=""></circle><path fill="#c4c4c4" d="M207.039 375.656v46.418c12.817-.001 23.207-10.392 23.207-23.209s-10.39-23.208-23.207-23.209z" opacity="1" data-original="#c4c4c4"></path><path fill="#ffffff" d="M443.935 178.969v-30.038H428.62a56.645 56.645 0 0 0-5.491-13.24l10.835-10.835-21.24-21.24-10.835 10.835a56.69 56.69 0 0 0-13.24-5.492V93.643h-30.038v15.316a56.605 56.605 0 0 0-13.24 5.492l-10.835-10.835-21.24 21.24 10.835 10.835a56.645 56.645 0 0 0-5.491 13.24h-15.316v30.038h15.316a56.645 56.645 0 0 0 5.491 13.24l-10.835 10.835 21.24 21.24 10.835-10.835a56.645 56.645 0 0 0 13.24 5.491v15.316h30.038V218.94a56.627 56.627 0 0 0 13.24-5.491l10.835 10.835 21.24-21.24-10.835-10.835a56.645 56.645 0 0 0 5.491-13.24zm-70.306 11.241c-14.503 0-26.26-11.757-26.26-26.26s11.757-26.26 26.26-26.26 26.26 11.757 26.26 26.26-11.757 26.26-26.26 26.26z" opacity="1" data-original="#ffffff" class=""></path><path fill="#e2e2e2" d="M488.652 294.122v-22.044h-11.24a41.528 41.528 0 0 0-4.03-9.716l7.951-7.951-15.587-15.587-7.951 7.951a41.57 41.57 0 0 0-9.716-4.03v-11.24h-22.044v11.24a41.528 41.528 0 0 0-9.716 4.03l-7.951-7.951-15.587 15.587 7.951 7.951a41.57 41.57 0 0 0-4.03 9.716h-11.24v22.044h11.24a41.528 41.528 0 0 0 4.03 9.716l-7.951 7.951 15.587 15.587 7.951-7.951a41.57 41.57 0 0 0 9.716 4.03v11.24h22.044v-11.24a41.528 41.528 0 0 0 9.716-4.03l7.951 7.951 15.587-15.587-7.951-7.951a41.528 41.528 0 0 0 4.03-9.716zm-51.594 6.589c-9.726 0-17.61-7.884-17.61-17.611 0-9.726 7.884-17.61 17.61-17.61s17.611 7.884 17.611 17.61c-.001 9.727-7.885 17.611-17.611 17.611zM443.935 178.969v-30.038H428.62a56.645 56.645 0 0 0-5.491-13.24l10.835-10.835-21.24-21.241-10.835 10.835a56.69 56.69 0 0 0-13.24-5.492V93.643H373.63v44.047c14.503 0 26.26 11.757 26.26 26.26s-11.757 26.26-26.26 26.26v44.047h15.019v-15.316a56.627 56.627 0 0 0 13.24-5.491l10.835 10.835 21.24-21.24-10.835-10.835a56.645 56.645 0 0 0 5.491-13.24h15.315z" opacity="1" data-original="#e2e2e2" class=""></path><path fill="#c4c4c4" d="M488.652 294.122v-22.043h-11.24a41.528 41.528 0 0 0-4.03-9.716l7.951-7.951-15.587-15.587-7.951 7.951a41.528 41.528 0 0 0-9.716-4.03v-11.24h-11.022v33.984c9.726 0 17.611 7.885 17.611 17.611s-7.885 17.611-17.611 17.611v33.984h11.022v-11.24a41.528 41.528 0 0 0 9.716-4.03l7.951 7.951 15.587-15.587-7.951-7.951a41.528 41.528 0 0 0 4.03-9.716h11.24z" opacity="1" data-original="#c4c4c4"></path></g></svg>