<svg xmlns="http://www.w3.org/2000/svg" version="1.1" xmlns:xlink="http://www.w3.org/1999/xlink" width="512" height="512" x="0" y="0" viewBox="0 0 24 24" style="enable-background:new 0 0 512 512" xml:space="preserve" class=""><g><path d="M21.5 23h-19A2.503 2.503 0 0 1 0 20.5v-17C0 2.122 1.122 1 2.5 1h19C22.878 1 24 2.122 24 3.5v17c0 1.378-1.122 2.5-2.5 2.5zM2.5 2C1.673 2 1 2.673 1 3.5v17c0 .827.673 1.5 1.5 1.5h19c.827 0 1.5-.673 1.5-1.5v-17c0-.827-.673-1.5-1.5-1.5z" fill="#a8a8a8" opacity="1" data-original="#a8a8a8" class=""></path><path d="M23.5 8H.5a.5.5 0 0 1 0-1h23a.5.5 0 0 1 0 1zM23.5 13H.5a.5.5 0 0 1 0-1h23a.5.5 0 0 1 0 1zM23.5 18H.5a.5.5 0 0 1 0-1h23a.5.5 0 0 1 0 1z" fill="#a8a8a8" opacity="1" data-original="#a8a8a8" class=""></path><path d="M6.5 23a.5.5 0 0 1-.5-.5v-15a.5.5 0 0 1 1 0v15a.5.5 0 0 1-.5.5zM12 23a.5.5 0 0 1-.5-.5v-15a.5.5 0 0 1 1 0v15a.5.5 0 0 1-.5.5zM17.5 23a.5.5 0 0 1-.5-.5v-15a.5.5 0 0 1 1 0v15a.5.5 0 0 1-.5.5z" fill="#a8a8a8" opacity="1" data-original="#a8a8a8" class=""></path></g></svg>