<svg xmlns="http://www.w3.org/2000/svg" version="1.1" xmlns:xlink="http://www.w3.org/1999/xlink" width="512" height="512" x="0" y="0" viewBox="0 0 682.667 682.667" style="enable-background:new 0 0 512 512" xml:space="preserve" class=""><g><defs><clipPath id="a" clipPathUnits="userSpaceOnUse"><path d="M0 512h512V0H0Z" fill="#696c6f" opacity="1" data-original="#696c6f"></path></clipPath></defs><g clip-path="url(#a)" transform="matrix(1.33333 0 0 -1.33333 0 682.667)"><path d="M0 0c0 39.668 78.691 109.98 112.191 76.48 8.107-8.105 8.284-8.285 8.284-8.285 17.502-17.502 46.138-17.5 63.64.002L332 216.082 141.082 407-6.804 259.115c-17.502-17.502-17.502-46.138-.001-63.64l8.285-8.284C34.98 153.691-35.333 75-75 75c-41.354 0-74.999-33.645-75.001-75 .001-20.678 8.412-39.428 21.993-53.008C-114.428-66.588-95.677-75-75-75-33.645-75 .001-41.355 0 0Z" style="stroke-width:30;stroke-linecap:round;stroke-linejoin:round;stroke-miterlimit:10;stroke-dasharray:none;stroke-opacity:1" transform="translate(165.001 90)" fill="none" stroke="#696c6f" stroke-width="30" stroke-linecap="round" stroke-linejoin="round" stroke-miterlimit="10" stroke-dasharray="none" stroke-opacity="" data-original="#696c6f" class=""></path><path d="M0 0v0" style="stroke-width:30;stroke-linecap:round;stroke-linejoin:round;stroke-miterlimit:10;stroke-dasharray:none;stroke-opacity:1" transform="translate(90.001 90)" fill="none" stroke="#696c6f" stroke-width="30" stroke-linecap="round" stroke-linejoin="round" stroke-miterlimit="10" stroke-dasharray="none" stroke-opacity="" data-original="#696c6f" class=""></path><path d="m0 0-190.918 190.92" style="stroke-width:30;stroke-linecap:round;stroke-linejoin:round;stroke-miterlimit:10;stroke-dasharray:none;stroke-opacity:1" transform="translate(412.148 221.228)" fill="none" stroke="#696c6f" stroke-width="30" stroke-linecap="round" stroke-linejoin="round" stroke-miterlimit="10" stroke-dasharray="none" stroke-opacity="" data-original="#696c6f" class=""></path></g></g></svg>